# xmcd
#
# Track frame offsets:
#	150
#	29878
#	61175
#	96577
#	111993
#	129215
#	148443
#	171474
#	199956
#	226764
#	252546
#	273673
#
# Disc length: 3927 seconds
#
# Revision: 1
# Processed by: cddbd v1.5PL3 Copyright (c) Steve Scherf et al.
# Submitted via: audiograbber 1.82.02
#
DISCID=c30f550c
DTITLE=Lambchop - Is a Woman
DYEAR=2002
DGENRE=Slow Country Jazz
TTITLE0=The Daily Growl
TTITLE1=The New Cobweb Summer
TTITLE2=My Blue Wave
TTITLE3=I Can Hardly Spell My Name
TTITLE4=The Gusher
TTITLE5=Autumn's Vicar
TTITLE6=Flick
TTITLE7=Caterpillar
TTITLE8=D. Scott Parsley
TTITLE9=Bugs
TTITLE10=The Old Matchbook Trick
TTITLE11=Is a Woman
EXTD=
EXTT0=
EXTT1=
EXTT2=
EXTT3=
EXTT4=
EXTT5=
EXTT6=
EXTT7=
EXTT8=
EXTT9=
EXTT10=
EXTT11=
PLAYORDER=
